<svg viewBox="0 0 30 30" xml:space="preserve" xmlns="http://www.w3.org/2000/svg" enable-background="new 0 0 30 30"><path d="M14.5 23.084 13.361 21h3.278L15.5 23.084 16.695 27H27c0-7-8-5-9-8v-2c.45-.223 1.737-1.755 1.872-2.952.354-.027.91-.352 1.074-1.635.088-.689-.262-1.076-.474-1.198 0 0 .528-1.003.528-2.214 0-2.428-.953-4.5-3-4.5 0 0-.711-1.5-3-1.5-4.242 0-6 2.721-6 6 0 1.104.528 2.214.528 2.214-.212.122-.562.51-.474 1.198.164 1.283.72 1.608 1.074 1.635C10.263 15.245 11.55 16.777 12 17v2c-1 3-9 1-9 8h10.305l1.195-3.916z" fill="#12a1c9" class="fill-000000"></path><path d="M19.5 21H17v-2h.889a1 1 0 0 1 .896.556L19.5 21zM10.5 21H13v-2h-.889a1 1 0 0 0-.896.556L10.5 21z" fill="#12a1c9" class="fill-000000"></path></svg>