<svg xmlns="http://www.w3.org/2000/svg" version="1.1" xmlns:xlink="http://www.w3.org/1999/xlink" width="32" height="32" x="0" y="0" viewBox="0 0 512 512" style="enable-background:new 0 0 512 512" xml:space="preserve" class=""><g><g data-name="Filled outline"><path fill="#fec9a3" d="M488 351.84V496H152V351.84a48 48 0 0 1 39.15-47.18l62.99-11.81L280 288v-80h80v80l25.86 4.85 62.99 11.81a47.79 47.79 0 0 1 23.19 11.475l.129.115a48.492 48.492 0 0 1 1.711 1.62c.42.42.83.84 1.23 1.28s.8.87 1.18 1.31c.45.51.88 1.03 1.3 1.56.26.34.53.68.79 1.03.08.11.17.22.25.33.26.35.52.71.77 1.08.17.23.33.47.48.71l.21.3c.11.18.23.35.34.53.22.34.44.68.63 1.03a45.053 45.053 0 0 1 1.26 2.2c.21.39.41.79.61 1.19.09.19.19.38.29.58a7.638 7.638 0 0 1 .34.71c.16.34.32.69.47 1.03q.285.645.54 1.29c.22.56.44 1.11.64 1.68q.615 1.68 1.08 3.42c.28 1.03.53 2.07.74 3.12.05.21.09.42.13.63v.01c.1.5.18 1 .26 1.5 0 .02.01.05.01.07.07.46.14.91.19 1.38a.019.019 0 0 1 0 .03c.03.21.06.41.08.62.06.47.1.94.14 1.41.02.18.03.36.04.53 0 .06.01.12.01.18.03.45.06.9.07 1.36.03.62.04 1.24.04 1.87z" opacity="1" data-original="#fec9a3" class=""></path><path fill="#feb784" d="M360 251.856V208h-80v43.856a71.963 71.963 0 0 0 80 0z" opacity="1" data-original="#feb784"></path><path fill="#743b20" d="M488 351.84V496H152V351.84a48 48 0 0 1 39.15-47.18L280 288l24 32 16 56 16-56 24-32 88.85 16.66c.26.05.52.1.77.16a46.713 46.713 0 0 1 4.89 1.26A48.014 48.014 0 0 1 488 351.84z" opacity="1" data-original="#743b20" class=""></path><path fill="#61311b" d="M488 351.84V496H258.47c51.79-23.9 143.01-79.79 191.15-191.18a46.713 46.713 0 0 1 4.89 1.26A48.014 48.014 0 0 1 488 351.84z" opacity="1" data-original="#61311b" class=""></path><path fill="#95573a" d="m304 320-40 32-9.86-59.15L280 288zM385.86 292.85 376 352l-40-32 24-32z" opacity="1" data-original="#95573a"></path><path fill="#fec9a3" d="M392 112v64a72 72 0 1 1-144 0v-64a72.023 72.023 0 0 1 104.78-64.12.01.01 0 0 1 .01.01A72.068 72.068 0 0 1 392 112z" opacity="1" data-original="#fec9a3" class=""></path><path fill="#fec093" d="M392 112v64a72.033 72.033 0 0 1-85.5 70.73A72.027 72.027 0 0 0 365 176V88a71.613 71.613 0 0 0-12.21-40.11A72.068 72.068 0 0 1 392 112z" opacity="1" data-original="#fec093" class=""></path><path fill="#743b20" d="m392 120 16 16V80.662A41.223 41.223 0 0 0 360 40v24s14.463 34.956 32 56z" opacity="1" data-original="#743b20" class=""></path><path fill="#8c5137" d="m248 120-16 16V80.662A41.223 41.223 0 0 1 280 40v24s-14.463 34.956-32 56z" opacity="1" data-original="#8c5137"></path><path fill="#7a432a" d="M360 40v24c-.3.18-.6.36-.91.54a203.881 203.881 0 0 1-85.55 27.68L232 96V80a56 56 0 0 1 56-56h46.11A28.939 28.939 0 0 1 360 40z" opacity="1" data-original="#7a432a"></path><path fill="#743b20" d="M360 40v24c-.3.18-.6.36-.91.54A72.238 72.238 0 0 0 324.01 24h10.1A28.939 28.939 0 0 1 360 40z" opacity="1" data-original="#743b20" class=""></path><path fill="#3d4d63" d="M152 312h128v176H152zM24 312h128v176H24z" opacity="1" data-original="#3d4d63"></path><path fill="#fae890" d="M152 488a32 32 0 0 0-32-32H24V280h96a32 32 0 0 1 32 32z" opacity="1" data-original="#fae890"></path><path fill="#f5df7b" d="M152 488a32 32 0 0 1 32-32h96V280h-96a32 32 0 0 0-32 32z" opacity="1" data-original="#f5df7b"></path><path fill="#edd561" d="M152 432v56a32 32 0 0 1 32-32h96V304z" opacity="1" data-original="#edd561"></path><path fill="#7a432a" d="m88 304-16 16-16-16V160a16 16 0 0 1 16-16 16 16 0 0 1 16 16z" opacity="1" data-original="#7a432a"></path><path fill="#743b20" d="M56 270.4V304l16 16 16-16v-91.2z" opacity="1" data-original="#743b20" class=""></path><path fill="#feb784" d="M400 120h-8v48h8a24 24 0 1 0 0-48zM240.4 120h-.4a24 24 0 0 0 0 48h8.48l-.48-48z" opacity="1" data-original="#feb784"></path><rect width="64" height="48" x="240" y="120" fill="#e0e0de" rx="12.8" opacity="1" data-original="#e0e0de"></rect><rect width="64" height="48" x="336" y="120" fill="#e0e0de" rx="12.8" opacity="1" data-original="#e0e0de"></rect><path fill="#d6d6d4" d="M256 168h35.2a12.8 12.8 0 0 0 12.8-12.8v-22.4a12.76 12.76 0 0 0-3.749-9.051zM352 168h35.2a12.8 12.8 0 0 0 12.8-12.8v-22.4a12.76 12.76 0 0 0-3.749-9.051z" opacity="1" data-original="#d6d6d4"></path><path d="M450.352 296.776 368 281.358v-41.392A79.8 79.8 0 0 0 400 176a31.989 31.989 0 0 0 16-59.695V80.662a49.221 49.221 0 0 0-51.806-49.154A36.7 36.7 0 0 0 334.111 16H288a64.068 64.068 0 0 0-63.935 61.447c-.06.934-.065 38.855-.065 38.855A31.989 31.989 0 0 0 240 176a79.793 79.793 0 0 0 32 63.967V272h-88a39.963 39.963 0 0 0-31.993 16.019 41.322 41.322 0 0 0-3.671-4.276l-.078-.078A40.042 40.042 0 0 0 120 272H96v-88h8a8.009 8.009 0 0 1 8 8v48h16v-48a24.028 24.028 0 0 0-24-24h-8v-8a24 24 0 0 0-48 0v112H24a8 8 0 0 0-8 8v208a8 8 0 0 0 8 8h256a8 8 0 0 0 8-8v-80h8v-16h-8v-48.955l11.61-9.288L312 377.122V496h16V377.122l12.39-43.365 30.61 24.49a8 8 0 0 0 12.921-5.137l7.166-51.151 56.32 10.541A40.01 40.01 0 0 1 480 351.84V496h16V351.84a56.019 56.019 0 0 0-45.648-55.064zM328.313 317.8 320 346.88l-8.308-29.08a7.985 7.985 0 0 0-1.287-2.6L288 285.333v-36.017a79.948 79.948 0 0 0 64 0v36.016L329.6 315.2a7.985 7.985 0 0 0-1.287 2.6zm-.222-186.8a45.5 45.5 0 0 0-16.182 0 20.819 20.819 0 0 0-20.709-19h-27.395q3.512-5.331 7.047-11.5l3.417-.311a213.315 213.315 0 0 0 81.987-24.868A292.415 292.415 0 0 0 376.234 112H348.8a20.819 20.819 0 0 0-20.709 19zM252.8 160a4.805 4.805 0 0 1-4.8-4.8v-22.4a4.805 4.805 0 0 1 4.8-4.8h38.4a4.805 4.805 0 0 1 4.8 4.8v22.4a4.805 4.805 0 0 1-4.8 4.8zm91.2-27.2a4.805 4.805 0 0 1 4.8-4.8h38.4a4.805 4.805 0 0 1 4.8 4.8v22.4a4.805 4.805 0 0 1-4.8 4.8h-38.4a4.805 4.805 0 0 1-4.8-4.8zm67.3 22.5a16.181 16.181 0 0 1-3.507 2.65 20.84 20.84 0 0 0 .2-2.754V132.8a20.774 20.774 0 0 0-.2-2.76 15.967 15.967 0 0 1 3.507 25.26zM400 80.662V112h-4.163C382.235 94.418 370.722 68.667 368 62.367V47.458a33.229 33.229 0 0 1 32 33.2zM288 32h46.111A20.818 20.818 0 0 1 352 42.048v17.361a197.219 197.219 0 0 1-79.18 24.848L240 87.24V80c0-.572.023-1.138.043-1.7a3.57 3.57 0 0 1 .041-.323l-.032-.007A48.052 48.052 0 0 1 288 32zm-48 71.305 11.033-1c-2.313 3.559-4.6 6.8-6.852 9.695H240zM224 144a16.006 16.006 0 0 1 8.205-13.96 20.806 20.806 0 0 0-.205 2.76v22.4a20.9 20.9 0 0 0 .2 2.757A16.008 16.008 0 0 1 224 144zm32 32h35.2a20.824 20.824 0 0 0 20.8-20.8v-7.785a29.327 29.327 0 0 1 16 0v7.785a20.824 20.824 0 0 0 20.8 20.8H384a64 64 0 0 1-128 0zm-72 112h88v160h-88a39.792 39.792 0 0 0-24 8.019V312a24.028 24.028 0 0 1 24-24zM80 300.687l-8 8-8-8V184h16zM72 152a8.009 8.009 0 0 1 8 8v8H64v-8a8.009 8.009 0 0 1 8-8zM32 288h16v16a8 8 0 0 0 2.343 5.657l16 16A7.976 7.976 0 0 0 72 328h56v-16H91.314l2.343-2.343A8 8 0 0 0 96 304v-16h24a23.959 23.959 0 0 1 24 24v144.022A39.788 39.788 0 0 0 120 448H32zm0 176h88a24.039 24.039 0 0 1 22.624 16H32zm129.376 16A24.039 24.039 0 0 1 184 464h88v16zM288 322.555V312l4.948 6.6zm82.027 14.422L347.052 318.6l16.323-21.764 11.941 2.389z" fill="#000000" opacity="1" data-original="#000000" class=""></path><path d="M416 416h-72v16h72v64h16V392h-16zM346.319 195.1l-4.638-15.313A99.062 99.062 0 0 1 312.934 184H296v16h16.934a115.037 115.037 0 0 0 33.385-4.9zM48 344h80v16H48zM48 376h80v16H48zM48 408h80v16H48zM176 312h80v16h-80zM176 344h80v16h-80zM176 376h48v16h-48zM176 408h80v16h-80zM240 376h16v16h-16z" fill="#000000" opacity="1" data-original="#000000" class=""></path></g></g></svg>