<svg xmlns="http://www.w3.org/2000/svg" version="1.1" xmlns:xlink="http://www.w3.org/1999/xlink" width="32" height="32" x="0" y="0" viewBox="0 0 60 60" style="enable-background:new 0 0 512 512" xml:space="preserve" class=""><g><path fill="#607d8b" d="M35 55v1a3 3 0 0 1-3 3H4a3 3 0 0 1-3-3v-5a3 3 0 0 0 3 3h20.36A4 4 0 0 0 27 55z" opacity="1" data-original="#607d8b"></path><path fill="#37474f" d="M32 55v1a3 3 0 0 1-3 3h3a3 3 0 0 0 3-3v-1z" opacity="1" data-original="#37474f"></path><path fill="#02a9f4" d="M13 14v6h10v31a3.984 3.984 0 0 0 1.36 3H4a3 3 0 0 1-3-3V4a3 3 0 0 1 3-3h4l2.86 3.05a2.989 2.989 0 0 0 2.19.95h9.9a2.989 2.989 0 0 0 2.19-.95L28 1h4a3 3 0 0 1 3 3v6H17a4 4 0 0 0-4 4z" opacity="1" data-original="#02a9f4"></path><path fill="#0377bc" d="M32 1h-3a3 3 0 0 1 3 3v6h3V4a3 3 0 0 0-3-3zM23 20h-3v31a3.984 3.984 0 0 0 1.36 3h3A3.984 3.984 0 0 1 23 51z" opacity="1" data-original="#0377bc"></path><path fill="#607d8b" d="m28 1-2.86 3.05a2.989 2.989 0 0 1-2.19.95h-9.9a2.989 2.989 0 0 1-2.19-.95L8 1z" opacity="1" data-original="#607d8b"></path><path fill="#37474f" d="m25 1-2.86 3.05a2.989 2.989 0 0 1-2.19.95h3a2.989 2.989 0 0 0 2.19-.95L28 1z" opacity="1" data-original="#37474f"></path><path fill="#ffeb3a" d="M59 47v4a4 4 0 0 1-4 4H31c2.21 0 4-2.79 4-5v-3a2.006 2.006 0 0 1 2-2h20a2.006 2.006 0 0 1 2 2z" opacity="1" data-original="#ffeb3a" class=""></path><path fill="#fdd834" d="M57 45h-3a2.006 2.006 0 0 1 2 2v4a4 4 0 0 1-4 4h3a4 4 0 0 0 4-4v-4a2.006 2.006 0 0 0-2-2z" opacity="1" data-original="#fdd834"></path><path fill="#ffdf00" d="M23 10v10H13v-6a4 4 0 0 1 4-4z" opacity="1" data-original="#ffdf00"></path><path fill="#fec108" d="M20 10h3v10h-3z" opacity="1" data-original="#fec108"></path><path fill="#ffeb3a" d="M49 14v31H37a2.006 2.006 0 0 0-2 2v3c0 2.21-1.79 5-4 5h-4a4.009 4.009 0 0 1-4-4V10h22a4 4 0 0 1 4 4z" opacity="1" data-original="#ffeb3a" class=""></path><g fill="#fdd834"><path d="M32 47v3c0 2.21-1.79 5-4 5h3c2.21 0 4-2.79 4-5v-3a2.006 2.006 0 0 1 2-2h-3a2.006 2.006 0 0 0-2 2zM45 10h-3a4 4 0 0 1 4 4v31h3V14a4 4 0 0 0-4-4z" fill="#fdd834" opacity="1" data-original="#fdd834"></path></g><path d="M57 44h-7V14a5.006 5.006 0 0 0-5-5h-9V4a4 4 0 0 0-4-4H4a4 4 0 0 0-4 4v52a4 4 0 0 0 4 4h28a4 4 0 0 0 4-4h19a5.006 5.006 0 0 0 5-5v-4a3 3 0 0 0-3-3zm-9-30v30H37a3 3 0 0 0-3 3v3c0 1.746-1.455 4-3 4h-4a3 3 0 0 1-3-3V11h21a3 3 0 0 1 3 3zm-26 5h-8v-5a3 3 0 0 1 3-3h5zm3.692-17L24.41 3.368A2.008 2.008 0 0 1 22.95 4h-9.9a2 2 0 0 1-1.459-.632L10.309 2zM2 4a2 2 0 0 1 2-2h3.567l2.564 2.735A4.013 4.013 0 0 0 13.05 6h9.9a4.013 4.013 0 0 0 2.919-1.265L28.433 2H32a2 2 0 0 1 2 2v5H17a5.006 5.006 0 0 0-5 5v5H5a1 1 0 0 0 0 2h17v30a4.95 4.95 0 0 0 .424 2H4a2 2 0 0 1-2-2zm30 54H4a2 2 0 0 1-2-2v-1.556A3.959 3.959 0 0 0 4 55h20.031A4.952 4.952 0 0 0 27 56h7a2 2 0 0 1-2 2zm26-7a3 3 0 0 1-3 3H34.587A6.808 6.808 0 0 0 36 50v-3a1 1 0 0 1 1-1h20a1 1 0 0 1 1 1z" fill="#000000" opacity="1" data-original="#000000" class=""></path><path d="M27 24h2a2.987 2.987 0 0 0 2.22-5A2.987 2.987 0 0 0 29 14h-2a1 1 0 0 0-1 1v8a1 1 0 0 0 1 1zm2-2h-1v-2h1a1 1 0 0 1 0 2zm-1-6h1a1 1 0 0 1 0 2h-1zM34 24a1 1 0 0 0 1-1v-8a1 1 0 0 0-2 0v8a1 1 0 0 0 1 1zM38 24h2a1 1 0 0 0 0-2h-1v-7a1 1 0 0 0-2 0v8a1 1 0 0 0 1 1zM43 24h2a1 1 0 0 0 0-2h-1v-7a1 1 0 0 0-2 0v8a1 1 0 0 0 1 1zM27 30h2a1 1 0 0 0 0-2h-2a1 1 0 0 0 0 2zM33 30h12a1 1 0 0 0 0-2H33a1 1 0 0 0 0 2zM27 34h2a1 1 0 0 0 0-2h-2a1 1 0 0 0 0 2zM45 32H33a1 1 0 0 0 0 2h12a1 1 0 0 0 0-2zM27 38h2a1 1 0 0 0 0-2h-2a1 1 0 0 0 0 2zM45 36H33a1 1 0 0 0 0 2h12a1 1 0 0 0 0-2z" fill="#000000" opacity="1" data-original="#000000" class=""></path></g></svg>