<svg xmlns="http://www.w3.org/2000/svg" version="1.1" xmlns:xlink="http://www.w3.org/1999/xlink" width="32" height="32" x="0" y="0" viewBox="0 0 512 512" style="enable-background:new 0 0 512 512" xml:space="preserve" class=""><g><path fill="#f8e868" d="M165.95 502.27 7.5 460.574V51.426L165.95 9.73zm0 0" opacity="1" data-original="#f8e868"></path><path fill="#e39c2d" d="M37.5 460.574V51.426l128.45-33.801V9.73L7.5 51.426v409.148l158.45 41.696v-7.895zm0 0" opacity="1" data-original="#e39c2d"></path><path fill="#e5ebf5" d="M133.516 256c0 10.535-8.54 19.07-19.07 19.07-10.536 0-19.075-8.535-19.075-19.07s8.54-19.07 19.074-19.07c10.532 0 19.07 8.535 19.07 19.07zm0 0" opacity="1" data-original="#e5ebf5"></path><path fill="#d15573" d="M317.332 223.988H165.949v81.692h151.383v45.699l113.895-86.547-113.895-86.547zm0 0" opacity="1" data-original="#d15573"></path><path fill="#c21d44" d="M165.95 223.988h30v81.692h-30zm0 0" opacity="1" data-original="#c21d44"></path><path fill="#e5ebf5" d="M165.95 56.832H270.19v167.156H165.95zM165.95 305.68H270.19v149.488H165.95zm0 0" opacity="1" data-original="#e5ebf5"></path><path fill="#cad8ea" d="M165.95 56.832h30v167.156h-30zM165.95 305.68h30v149.488h-30zm0 0" opacity="1" data-original="#cad8ea"></path><path fill="#72869e" d="M165.95 305.68h71.812v117.058h-71.813zM165.95 89.262h71.812v134.726h-71.813zm0 0" opacity="1" data-original="#72869e"></path><path fill="#536275" d="M165.95 305.68h30v117.058h-30zM165.95 89.262h30v134.726h-30zm0 0" opacity="1" data-original="#536275"></path><path fill="#ffffff" d="M274.281 272.023h-15v-15h15zm-25 0h-15v-15h15zm0 0" opacity="1" data-original="#ffffff"></path><path d="M0 466.355 173.45 512V0L0 45.645zM15 57.207l143.45-37.75v473.086L15 454.793zm0 0" fill="#000000" opacity="1" data-original="#000000"></path><path d="M114.445 229.426c-14.652 0-26.574 11.922-26.574 26.574s11.922 26.574 26.574 26.574c14.653 0 26.57-11.922 26.57-26.574s-11.917-26.574-26.57-26.574zm0 38.144c-6.382 0-11.574-5.187-11.574-11.57s5.192-11.57 11.574-11.57c6.38 0 11.57 5.187 11.57 11.57s-5.19 11.57-11.57 11.57zM262.691 195.984h15V49.332H193.45v15h69.242zM262.691 447.668H193.45v15h84.242V333.68h-15zm0 0" fill="#000000" opacity="1" data-original="#000000"></path><path d="M443.625 264.832 309.832 163.168v53.32H193.449v15h131.383v-38.086l94 71.43-94 71.43V298.18H193.449v15h116.383v53.32zm0 0" fill="#000000" opacity="1" data-original="#000000"></path><path d="M230.258 195.984h15.004V81.762h-51.813v15h36.809zM245.262 333.68h-15.004v81.558h-36.809v15h51.813zm0 0" fill="#000000" opacity="1" data-original="#000000"></path></g></svg>