<svg xmlns="http://www.w3.org/2000/svg" version="1.1" xmlns:xlink="http://www.w3.org/1999/xlink" width="32" height="32" x="0" y="0" viewBox="0 0 64 64" style="enable-background:new 0 0 512 512" xml:space="preserve" class=""><g><path fill="#e6e9ed" d="M54 24c-1.1 0-2-.9-2-2 0 1.1-.9 2-2 2h-6c-1.1 0-2-.9-2-2 0 1.1-.9 2-2 2h-6c-1.1 0-2-.9-2-2V21.82c-.31.12-.65.18-1 .18h-1c0 2.55-1.6 4.74-3.85 5.6L27 31l.02.01c.86.26 1.7.57 2.51.93L34 35v27h25c.55 0 1-.45 1-1V24z" opacity="1" data-original="#e6e9ed" class=""></path><path fill="#ffeaa7" d="m49 8 3 12H42L39 8z" opacity="1" data-original="#ffeaa7"></path><path fill="#ff826e" d="M58.46 9.37 62 20H52L49 8h7.56c.86 0 1.62.55 1.9 1.37zM42 20h-8.18c.12-.31.18-.65.18-1 0-.8-.32-1.53-.82-2.06l.3-1.81c.35-2.08.52-4.19.52-6.3 0-.28-.02-.55-.05-.82L34 8h5z" opacity="1" data-original="#ff826e" class=""></path><path fill="#fcd770" d="M52 22c0 1.1-.9 2-2 2h-6c-1.1 0-2-.9-2-2v-2h10z" opacity="1" data-original="#fcd770" class=""></path><path fill="#fc6e51" d="M62 20v2c0 1.1-.9 2-2 2h-6c-1.1 0-2-.9-2-2v-2zM42 20v2c0 1.1-.9 2-2 2h-6c-1.1 0-2-.9-2-2V21.82c.43-.14.81-.39 1.12-.7s.56-.69.7-1.12h.01z" opacity="1" data-original="#fc6e51"></path><path fill="#656d78" d="m33.48 15.13-.3 1.81c-.55-.58-1.32-.94-2.18-.94h-1v-2c0-1.1-.9-2-2-2h-3a5.01 5.01 0 0 1-4-2h-3c-2.21 0-4 1.79-4 4v2h-1c-.86 0-1.63.36-2.18.94l-.72-4.34A7.392 7.392 0 0 1 17.39 4h2c2.36 0 4.65-.7 6.61-2 1.28.64 2.25 1.76 2.71 3.12L29 6l.74-.37c.83-.42 1.6-.97 2.26-1.63a6.832 6.832 0 0 1 2 4.83c0 2.11-.17 4.22-.52 6.3z" opacity="1" data-original="#656d78"></path><path fill="#ffeaa7" d="m23 38 2 6h-6l2-6z" opacity="1" data-original="#ffeaa7"></path><path fill="#fcd770" d="M24.5 35 23 38h-2l-1.5-3 2.5-2z" opacity="1" data-original="#fcd770" class=""></path><path fill="#4fc1e9" d="m41.49 44.77-.48-1.15a21.53 21.53 0 0 0-1.93-3.61 21.754 21.754 0 0 0-9.55-8.07L27 37l-2.5-2-1.5 3 2 6h-6l2-6-1.5-3-2.5 2-2.53-5.06A21.938 21.938 0 0 0 2.99 43.62l-.48 1.15c-.34.81-.51 1.68-.51 2.56C2 51.02 4.98 54 8.67 54H10v8h24v-8h1.33c.95 0 1.86-.2 2.67-.55 2.36-1.03 4-3.38 4-6.12 0-.88-.17-1.75-.51-2.56z" opacity="1" data-original="#4fc1e9" class=""></path><path fill="#3bafda" d="M29.53 31.94 27 37l-2.5-2-2.5-2 5-2 .02.01c.86.26 1.7.57 2.51.93zM22 33l-2.5 2-2.5 2-2.53-5.06c.81-.36 1.65-.67 2.51-.93L17 31z" opacity="1" data-original="#3bafda"></path><path fill="#e6e9ed" d="M28 54v3c0 .55-.45 1-1 1H17c-.55 0-1-.45-1-1v-3h1c.83 0 1.58-.34 2.12-.88S20 51.83 20 51c0-1.66-1.34-3-3-3h-1v-3c0-.55.45-1 1-1h10c.55 0 1 .45 1 1v3h-1a2.996 2.996 0 0 0-2.12 5.12c.54.54 1.29.88 2.12.88z" opacity="1" data-original="#e6e9ed" class=""></path><path fill="#f0d0b4" d="M30 48v6h-3c-.83 0-1.58-.34-2.12-.88S24 51.83 24 51c0-1.66 1.34-3 3-3h1zM16 48h1a2.996 2.996 0 0 1 2.12 5.12c-.54.54-1.29.88-2.12.88h-3v-6zM31 16c.86 0 1.63.36 2.18.94.5.53.82 1.26.82 2.06 0 .35-.06.69-.18 1-.14.43-.39.81-.7 1.12s-.69.56-1.12.7c-.31.12-.65.18-1 .18h-1v-6zM26.15 27.6 27 31l-5 2-5-2 .85-3.4c.67.26 1.39.4 2.15.4h4c.76 0 1.48-.14 2.15-.4z" opacity="1" data-original="#f0d0b4"></path><path fill="#f0d0b4" d="M30 16v6a6.002 6.002 0 0 1-6 6h-4a6.002 6.002 0 0 1-6-6v-8c0-2.21 1.79-4 4-4h3c.91 1.21 2.37 2 4 2h3c1.1 0 2 .9 2 2zM14 16v6h-1c-.83 0-1.58-.34-2.12-.88a2.993 2.993 0 0 1-.06-4.18c.55-.58 1.32-.94 2.18-.94z" opacity="1" data-original="#f0d0b4"></path><path fill="#d3a06c" d="m39.09 40-.01.01c.75 1.13 1.4 2.34 1.93 3.61l.48 1.15c.34.81.51 1.68.51 2.56 0 2.74-1.64 5.09-4 6.12V57c0 .55.45 1 1 1h16c.55 0 1-.45 1-1V40zM55 28H45c-.55 0-1 .45-1 1v11h12V29c0-.55-.45-1-1-1z" opacity="1" data-original="#d3a06c" class=""></path><path fill="#b27946" d="M44 40h6v4h-6zM48 28h4v4h-4z" opacity="1" data-original="#b27946"></path><circle cx="18" cy="16" r="1" fill="#000000" opacity="1" data-original="#000000" class=""></circle><circle cx="26" cy="16" r="1" fill="#000000" opacity="1" data-original="#000000" class=""></circle><path d="M27 21h-2c0 1.103-.897 2-2 2h-4v2h4c2.206 0 4-1.794 4-4z" fill="#000000" opacity="1" data-original="#000000" class=""></path><path d="M59.404 9.051A2.995 2.995 0 0 0 56.559 7H34.771a7.875 7.875 0 0 0-2.064-3.707L32 2.586l-.707.707a7.711 7.711 0 0 1-1.715 1.293 6.35 6.35 0 0 0-3.131-3.48l-.519-.26-.483.322A10.878 10.878 0 0 1 19.395 3h-2.006C12.763 3 9 6.763 9 11.389c0 .464.038.929.114 1.379l.65 3.9A3.964 3.964 0 0 0 9 19c0 2.206 1.794 4 4 4h.08a7.01 7.01 0 0 0 3.6 5.16l-.516 2.062A22.908 22.908 0 0 0 2.07 43.232l-.48 1.152A7.61 7.61 0 0 0 1 47.333C1 51.561 4.439 55 8.667 55H9v8h50c1.103 0 2-.897 2-2V24.816A2.996 2.996 0 0 0 63 22v-2.162zm-1.896.633L60.613 19H52.78l-2.5-10h6.278a1 1 0 0 1 .95.684zM31 17c1.103 0 2 .897 2 2s-.897 2-2 2zm3.996-8h3.223l2.5 10H35c0-.873-.289-1.674-.764-2.333l.229-1.374c.346-2.076.522-4.193.531-6.293zm7.784 10-2.5-10h7.939l2.5 10zm-8.336 2H41v1a1 1 0 0 1-1 1h-6a1 1 0 0 1-.915-.602A4.016 4.016 0 0 0 34.444 21zM43 21h8v1a1 1 0 0 1-1 1h-6a1 1 0 0 1-1-1zm-32-2c0-1.103.897-2 2-2v4c-1.103 0-2-.897-2-2zm2-5v1c-.509 0-.992.105-1.44.279l-.473-2.841A6.396 6.396 0 0 1 17.389 5h2.006c2.347 0 4.626-.632 6.63-1.833.813.54 1.42 1.33 1.734 2.271l.657 1.972 1.767-.882a9.77 9.77 0 0 0 1.721-1.101A5.886 5.886 0 0 1 33 8.828c0 2.047-.171 4.111-.508 6.136l-.053.315A3.955 3.955 0 0 0 31 15v-1c0-1.654-1.346-3-3-3h-3c-2.206 0-4-1.794-4-4h-2c0 .701.121 1.374.343 2H18c-2.757 0-5 2.243-5 5zm2 8v-8c0-1.654 1.346-3 3-3h2.531c1.1 1.227 2.695 2 4.469 2h3a1 1 0 0 1 1 1v8c0 2.757-2.243 5-5 5h-4c-2.757 0-5-2.243-5-5zm34 7h2v2h-2zm4 4v-4h2v10H45V29h2v4zm-4 8v2h-4v-2zm2 4v-4h4v16H39v-2.936a7.673 7.673 0 0 0 4-6.731c0-1.019-.198-2.01-.59-2.948l-.48-1.152a23.166 23.166 0 0 0-1.076-2.232H43v4h8zm-10.916-.998.48 1.152c.29.694.436 1.426.436 2.179A5.673 5.673 0 0 1 35.333 53H31v-4h8v-2h-4v-4h-2v4h-4v-2c0-1.103-.897-2-2-2h-1.28l-1.641-4.923.762-1.523 2.5 2 2.655-5.309a20.907 20.907 0 0 1 10.088 10.757zM17 49c1.103 0 2 .897 2 2s-.897 2-2 2h-2v-4zm0 6c2.206 0 4-1.794 4-4s-1.794-4-4-4v-2h10v2c-2.206 0-4 1.794-4 4s1.794 4 4 4v2H17zm3.035-21.709-2.694 2.155-1.497-2.994c.369-.14.742-.27 1.121-.389zm1.965.99 1.244.995L22.382 37h-.764l-.862-1.724zM21.72 39h.559l1.333 4h-3.226zM29 49v4h-2c-1.103 0-2-.897-2-2s.897-2 2-2zm-.844-16.547-1.497 2.994-2.694-2.155 3.07-1.228c.379.119.752.249 1.121.389zM20 29h4c.491 0 .97-.052 1.432-.149l.386 1.544L22 31.923l-3.818-1.527.386-1.544c.462.096.941.148 1.432.148zM3 47.333c0-.753.146-1.485.436-2.179l.48-1.152a20.915 20.915 0 0 1 10.088-10.757l2.655 5.309 2.5-2 .762 1.523L18.28 43H17c-1.103 0-2 .897-2 2v2h-4v-4H9v4H5v2h8v4H8.667A5.673 5.673 0 0 1 3 47.333zM11 55h4v2c0 1.103.897 2 2 2h10c1.103 0 2-.897 2-2v-2h4v6H11zm24 6v-6h.333c.573 0 1.13-.068 1.667-.188V57c0 1.103.897 2 2 2h16c1.103 0 2-.897 2-2V29c0-1.103-.897-2-2-2H45c-1.103 0-2 .897-2 2v10h-3.383c-2.828-4.1-6.929-7.184-11.78-8.775l-.517-2.065a7.015 7.015 0 0 0 3.6-5.16H31c.061 0 .118-.015.179-.018A2.993 2.993 0 0 0 34 25h6a2.98 2.98 0 0 0 2-.78c.532.48 1.229.78 2 .78h6a2.98 2.98 0 0 0 2-.78c.532.48 1.229.78 2 .78h5v36zm25-38h-6a1 1 0 0 1-1-1v-1h8v1a1 1 0 0 1-1 1z" fill="#000000" opacity="1" data-original="#000000" class=""></path></g></svg>